# Blender 5.1.1
# www.blender.org
mtllib map.mtl
o Cube
v -0.333333 1.000000 -0.251782
v -1.000000 1.000000 1.762473
v -0.166667 1.000000 0.587491
v -0.333333 1.000000 0.587491
v -0.333333 1.000000 -0.755346
v 1.000000 1.000000 1.762473
v -0.166667 1.000000 0.755346
v -0.333333 1.000000 0.755346
v -0.166667 1.000000 0.251782
v 0.166667 1.000000 0.419636
v 0.833333 1.000000 0.419636
v 0.666667 1.000000 0.419636
v 0.833333 1.000000 0.587491
v 0.666667 1.000000 0.587491
v -1.000000 1.000000 1.258910
v -1.000000 1.000000 0.755346
v -1.000000 1.000000 0.251782
v -1.000000 1.000000 -0.251782
v -1.000000 1.000000 -0.755346
v -0.333333 1.000000 0.251782
v 0.833333 1.000000 1.426764
v 0.666667 1.000000 1.426764
v 0.833333 1.000000 1.594619
v 0.666667 1.000000 1.594619
v 0.666667 1.000000 1.762473
v 0.833333 1.000000 1.762473
v 1.000000 1.000000 -1.258910
v 1.000000 1.000000 -0.755346
v -0.166667 1.000000 -0.251782
v 1.000000 1.000000 0.251782
v 1.000000 1.000000 0.755346
v 1.000000 1.000000 1.258910
v 0.833333 1.000000 1.258910
v 0.666667 1.000000 1.258910
v 0.833333 1.000000 0.755346
v -0.500000 1.000000 -1.762473
v 0.000000 1.000000 -1.762473
v 0.500000 1.000000 -1.762473
v 0.666667 1.000000 0.755346
v -0.500000 1.000000 1.547475
v -0.500000 1.000000 1.473908
v 0.500000 1.000000 1.762473
v 0.833333 1.000000 0.251782
v -0.500000 1.000000 1.762473
v -0.500000 1.000000 -1.258910
v 0.000000 1.000000 -1.258910
v 0.500000 1.000000 -1.258910
v -0.500000 1.000000 -0.755346
v 0.166667 1.000000 -0.755346
v 0.500000 1.000000 -0.755346
v -0.500000 1.000000 -0.251782
v 0.166667 1.000000 -0.251782
v 0.500000 1.000000 -0.251782
v -0.500000 1.000000 0.251782
v 0.500000 1.000000 0.251782
v -0.500000 1.000000 0.755346
v 0.000000 1.000000 0.755346
v 0.500000 1.000000 0.755346
v -0.500000 1.000000 1.258910
v 0.666667 1.000000 0.251782
v 0.500000 1.000000 1.258910
v 0.500000 1.000000 1.594619
v 0.500000 1.000000 1.426764
v 0.333333 1.000000 0.587491
v 0.166667 1.000000 0.587491
v -1.000000 1.000000 1.426764
v -1.000000 1.000000 1.594619
v 1.000000 1.000000 1.594619
v 1.000000 1.000000 1.426764
v -0.500000 1.000000 0.587491
v -0.500000 1.000000 0.419636
v 0.000000 1.000000 0.587491
v 0.000000 1.000000 0.419636
v 0.500000 1.000000 0.587491
v 0.500000 1.000000 0.419636
v 1.000000 1.000000 0.587491
v 1.000000 1.000000 0.419636
v -1.000000 1.000000 0.419636
v -1.000000 1.000000 0.587491
v -0.333333 1.000000 0.419636
v 1.000000 1.000000 -1.091055
v 1.000000 1.000000 -0.923200
v 0.500000 1.000000 -1.091055
v 0.500000 1.000000 -0.923200
v 0.500000 1.000000 -1.426764
v 0.500000 1.000000 -1.594619
v 0.166667 1.000000 -1.762473
v 0.333333 1.000000 -1.762473
v 0.166667 1.000000 -1.258910
v 0.333333 1.000000 -1.258910
v 0.833333 1.000000 -1.258910
v 0.333333 1.000000 -0.755346
v 0.666667 1.000000 -1.258910
v 0.333333 1.000000 -0.251782
v 0.000000 1.000000 -1.594619
v 0.000000 1.000000 -1.426764
v -0.500000 1.000000 -1.594619
v -0.500000 1.000000 -1.426764
v 0.333333 1.000000 -1.594619
v 0.333333 1.000000 -1.426764
v 0.166667 1.000000 -1.594619
v 0.166667 1.000000 -1.426764
v -0.333333 1.000000 -0.587491
v -0.333333 1.000000 -0.419636
v -0.166667 1.000000 -0.587491
v -0.166667 1.000000 -0.419636
v -1.000000 1.000000 -0.419636
v -1.000000 1.000000 -0.587491
v 0.500000 1.000000 -0.587491
v 0.500000 1.000000 -0.419636
v 0.000000 1.000000 -0.587491
v 0.000000 1.000000 -0.419636
v -0.500000 1.000000 -0.587491
v -0.500000 1.000000 -0.419636
v 0.333333 1.000000 -0.587491
v 0.333333 1.000000 -0.419636
v 0.166667 1.000000 -0.587491
v 0.166667 1.000000 -0.419636
v 0.333333 1.000000 0.419636
v 0.666667 1.000000 -0.755346
v 0.833333 1.000000 -0.755346
v 0.666667 1.000000 -1.091055
v 0.833333 1.000000 -1.091055
v 0.666667 1.000000 -0.923200
v 0.833333 1.000000 -0.923200
v 0.666667 1.000000 0.923200
v 0.666667 1.000000 1.091055
v 0.833333 1.000000 0.923200
v 0.833333 1.000000 1.091055
v -0.333333 0.835011 -0.251782
v -1.000000 0.835011 1.762473
v -0.166667 0.835011 0.587491
v -0.333333 0.835011 0.587491
v -0.333333 0.835011 -0.755346
v 1.000000 0.835011 1.762473
v -0.166667 0.835011 0.755346
v -0.333333 0.835011 0.755346
v -0.166667 0.835011 0.251782
v 0.166667 0.835011 0.419636
v 0.833333 0.835011 0.419636
v 0.666667 0.835011 0.419636
v 0.833333 0.835011 0.587491
v 0.666667 0.835011 0.587491
v -1.000000 0.835011 1.258910
v -1.000000 0.835011 0.755346
v -1.000000 0.835011 0.251782
v -1.000000 0.835011 -0.251782
v -1.000000 0.835011 -0.755346
v -0.333333 0.835011 0.251782
v 0.833333 0.835011 1.426764
v 0.666667 0.835011 1.426764
v 0.833333 0.835011 1.594619
v 0.666667 0.835011 1.594619
v 0.666667 0.835011 1.762473
v 0.833333 0.835011 1.762473
v 1.000000 0.835011 -1.258910
v 1.000000 0.835011 -0.755346
v -0.166667 0.835011 -0.251782
v 1.000000 0.835011 0.251782
v 1.000000 0.835011 0.755346
v 1.000000 0.835011 1.258910
v 0.833333 0.835011 1.258910
v 0.666667 0.835011 1.258910
v 0.833333 0.835011 0.755346
v -0.500000 0.835011 -1.762473
v 0.000000 0.835011 -1.762473
v 0.500000 0.835011 -1.762473
v 0.666667 0.835011 0.755346
v -0.500000 0.835011 1.547475
v -0.500000 0.835011 1.473908
v 0.500000 0.835011 1.762473
v 0.833333 0.835011 0.251782
v -0.500000 0.835011 1.762473
v -0.500000 0.835011 -1.258910
v 0.000000 0.835011 -1.258910
v 0.500000 0.835011 -1.258910
v -0.500000 0.835011 -0.755346
v 0.166667 0.835011 -0.755346
v 0.500000 0.835011 -0.755346
v -0.500000 0.835011 -0.251782
v 0.166667 0.835011 -0.251782
v 0.500000 0.835011 -0.251782
v -0.500000 0.835011 0.251782
v 0.500000 0.835011 0.251782
v -0.500000 0.835011 0.755346
v 0.000000 0.835011 0.755346
v 0.500000 0.835011 0.755346
v -0.500000 0.835011 1.258910
v 0.666667 0.835011 0.251782
v 0.500000 0.835011 1.258910
v 0.500000 0.835011 1.594619
v 0.500000 0.835011 1.426764
v 0.333333 0.835011 0.587491
v 0.166667 0.835011 0.587491
v -1.000000 0.835011 1.426764
v -1.000000 0.835011 1.594619
v 1.000000 0.835011 1.594619
v 1.000000 0.835011 1.426764
v -0.500000 0.835011 0.587491
v -0.500000 0.835011 0.419636
v 0.000000 0.835011 0.587491
v 0.000000 0.835011 0.419636
v 0.500000 0.835011 0.587491
v 0.500000 0.835011 0.419636
v 1.000000 0.835011 0.587491
v 1.000000 0.835011 0.419636
v -1.000000 0.835011 0.419636
v -1.000000 0.835011 0.587491
v -0.333333 0.835011 0.419636
v 1.000000 0.835011 -1.091055
v 1.000000 0.835011 -0.923200
v 0.500000 0.835011 -1.091055
v 0.500000 0.835011 -0.923200
v 0.500000 0.835011 -1.426764
v 0.500000 0.835011 -1.594619
v 0.166667 0.835011 -1.762473
v 0.333333 0.835011 -1.762473
v 0.166667 0.835011 -1.258910
v 0.333333 0.835011 -1.258910
v 0.833333 0.835011 -1.258910
v 0.333333 0.835011 -0.755346
v 0.666667 0.835011 -1.258910
v 0.333333 0.835011 -0.251782
v 0.000000 0.835011 -1.594619
v 0.000000 0.835011 -1.426764
v -0.500000 0.835011 -1.594619
v -0.500000 0.835011 -1.426764
v 0.333333 0.835011 -1.594619
v 0.333333 0.835011 -1.426764
v 0.166667 0.835011 -1.594619
v 0.166667 0.835011 -1.426764
v -0.333333 0.835011 -0.587491
v -0.333333 0.835011 -0.419636
v -0.166667 0.835011 -0.587491
v -0.166667 0.835011 -0.419636
v -1.000000 0.835011 -0.419636
v -1.000000 0.835011 -0.587491
v 0.500000 0.835011 -0.587491
v 0.500000 0.835011 -0.419636
v 0.000000 0.835011 -0.587491
v 0.000000 0.835011 -0.419636
v -0.500000 0.835011 -0.587491
v -0.500000 0.835011 -0.419636
v 0.333333 0.835011 -0.587491
v 0.333333 0.835011 -0.419636
v 0.166667 0.835011 -0.587491
v 0.166667 0.835011 -0.419636
v 0.333333 0.835011 0.419636
v 0.666667 0.835011 -0.755346
v 0.833333 0.835011 -0.755346
v 0.666667 0.835011 -1.091055
v 0.833333 0.835011 -1.091055
v 0.666667 0.835011 -0.923200
v 0.833333 0.835011 -0.923200
v 0.666667 0.835011 0.923200
v 0.666667 0.835011 1.091055
v 0.833333 0.835011 0.923200
v 0.833333 0.835011 1.091055
v -0.833333 1.000000 -0.755346
v -0.666667 1.000000 -0.755346
v -0.833333 1.000000 -0.251782
v -0.666667 1.000000 -0.251782
v -0.833333 1.000000 -0.587491
v -0.666667 1.000000 -0.587491
v -0.833333 1.000000 -0.419636
v -0.666667 1.000000 -0.419636
v -0.833333 0.835011 -0.755346
v -0.666667 0.835011 -0.755346
v -0.833333 0.835011 -0.251782
v -0.666667 0.835011 -0.251782
v -0.833333 0.835011 -0.587491
v -0.666667 0.835011 -0.587491
v -0.833333 0.835011 -0.419636
v -0.666667 0.835011 -0.419636
v -0.833333 1.000000 0.251782
v -0.666667 1.000000 0.251782
v -0.833333 1.000000 0.755346
v -0.666667 1.000000 0.755346
v -0.833333 1.000000 0.587491
v -0.666667 1.000000 0.587491
v -0.833333 1.000000 0.419636
v -0.666667 1.000000 0.419636
v -0.833333 0.835011 0.251782
v -0.666667 0.835011 0.251782
v -0.833333 0.835011 0.755346
v -0.666667 0.835011 0.755346
v -0.833333 0.835011 0.587491
v -0.666667 0.835011 0.587491
v -0.833333 0.835011 0.419636
v -0.666667 0.835011 0.419636
v 0.833333 0.900675 0.587491
v 0.666667 0.900675 0.587491
vn -0.0000 1.0000 -0.0000
vn 1.0000 -0.0000 -0.0000
vn -0.0000 -1.0000 -0.0000
vn -0.0000 -0.0000 -1.0000
vn -1.0000 -0.0000 -0.0000
vn -0.0000 -0.0000 1.0000
vn 0.7096 -0.0000 0.7046
vn -0.7096 -0.0000 -0.7046
vn 0.7096 -0.0000 -0.7046
vn -0.7096 -0.0000 0.7046
vn -0.0471 -0.0000 0.9989
vn -0.0471 -0.0000 -0.9989
vn -0.0000 0.8606 0.5093
vt 0.812500 0.738095
vt 0.875000 0.738095
vt 0.875000 0.750000
vt 0.812500 0.750000
vt 0.854167 0.595238
vt 0.875000 0.595238
vt 0.875000 0.607143
vt 0.854167 0.607143
vt 0.854167 0.666667
vt 0.875000 0.666667
vt 0.875000 0.678571
vt 0.854167 0.678571
vt 0.770833 0.666667
vt 0.791667 0.666667
vt 0.791667 0.678571
vt 0.770833 0.678571
vt 0.750000 0.666667
vt 0.750000 0.678571
vt 0.770833 0.607143
vt 0.791667 0.607143
vt 0.791667 0.642857
vt 0.770833 0.642857
vt 0.770833 0.595238
vt 0.791667 0.595238
vt 0.791667 0.654762
vt 0.645833 0.726190
vt 0.666667 0.726190
vt 0.666667 0.738095
vt 0.645833 0.738095
vt 0.625000 0.726190
vt 0.625000 0.738095
vt 0.645833 0.714286
vt 0.666667 0.714286
vt 0.625000 0.714286
vt 0.645833 0.702381
vt 0.666667 0.702381
vt 0.770833 0.654762
vt 0.645833 0.678571
vt 0.666667 0.678571
vt 0.666667 0.690476
vt 0.645833 0.690476
vt 0.625000 0.666667
vt 0.645833 0.666667
vt 0.625000 0.678571
vt 0.666667 0.750000
vt 0.645833 0.750000
vt 0.625000 0.750000
vt 0.812500 0.726190
vt 0.875000 0.726190
vt 0.812500 0.714286
vt 0.875000 0.714286
vt 0.687500 0.726190
vt 0.687500 0.738095
vt 0.687500 0.714286
vt 0.687500 0.654762
vt 0.708333 0.654762
vt 0.708333 0.666667
vt 0.687500 0.666667
vt 0.666667 0.654762
vt 0.666667 0.666667
vt 0.666667 0.666667
vt 0.750000 0.726190
vt 0.750000 0.738095
vt 0.625000 0.654762
vt 0.645833 0.654762
vt 0.687500 0.678571
vt 0.729167 0.666667
vt 0.625000 0.571429
vt 0.645833 0.571429
vt 0.666667 0.571429
vt 0.687500 0.571429
vt 0.687500 0.583333
vt 0.687500 0.595238
vt 0.687500 0.607143
vt 0.812500 0.607143
vt 0.812500 0.642857
vt 0.729167 0.595238
vt 0.750000 0.595238
vt 0.729167 0.607143
vt 0.812500 0.595238
vt 0.666667 0.559524
vt 0.687500 0.559524
vt 0.687500 0.500000
vt 0.708333 0.500000
vt 0.708333 0.511905
vt 0.687500 0.511905
vt 0.750000 0.523809
vt 0.812500 0.523809
vt 0.812500 0.535714
vt 0.750000 0.535714
vt 0.687500 0.750000
vt 0.625000 0.642857
vt 0.645833 0.642857
vt 0.854167 0.654762
vt 0.875000 0.654762
vt 0.854167 0.642857
vt 0.875000 0.642857
vt 0.666667 0.642857
vt 0.687500 0.642857
vt 0.729167 0.654762
vt 0.750000 0.654762
vt 0.812500 0.654762
vt 0.812500 0.666667
vt 0.687500 0.535714
vt 0.666667 0.535714
vt 0.645833 0.535714
vt 0.625000 0.535714
vt 0.687500 0.523809
vt 0.729167 0.511905
vt 0.729167 0.523809
vt 0.708333 0.523809
vt 0.729167 0.500000
vt 0.687500 0.547619
vt 0.666667 0.547619
vt 0.708333 0.535714
vt 0.729167 0.535714
vt 0.750000 0.511905
vt 0.708333 0.595238
vt 0.708333 0.607143
vt 0.750000 0.500000
vt 0.812500 0.500000
vt 0.812500 0.511905
vt 0.708333 0.571429
vt 0.729167 0.571429
vt 0.729167 0.583333
vt 0.708333 0.583333
vt 0.791667 0.571429
vt 0.812500 0.571429
vt 0.812500 0.583333
vt 0.791667 0.583333
vt 0.750000 0.571429
vt 0.750000 0.583333
vt 0.770833 0.583333
vt 0.854167 0.571429
vt 0.875000 0.571429
vt 0.875000 0.583333
vt 0.854167 0.583333
vt 0.708333 0.678571
vt 0.625000 0.547619
vt 0.645833 0.547619
vt 0.645833 0.559524
vt 0.625000 0.559524
vt 0.812500 0.678571
vt 0.833333 0.607143
vt 0.833333 0.678571
vt 0.833333 0.571429
vt 0.833333 0.595238
vt 0.833333 0.583333
vt 0.833333 0.642857
vt 0.833333 0.654762
vt 0.833333 0.666667
s 0
f 40/1/1 67/2/1 2/3/1 44/4/1
f 265/5/1 107/6/1 18/7/1 261/8/1
f 279/9/1 79/10/1 16/11/1 277/12/1
f 3/13/1 4/14/1 8/15/1 7/16/1
f 72/17/1 3/13/1 7/16/1 57/18/1
f 29/19/1 1/20/1 20/21/1 9/22/1
f 106/23/1 104/24/1 1/20/1 29/19/1
f 4/14/1 3/13/1 80/25/1
f 21/26/1 22/27/1 24/28/1 23/29/1
f 69/30/1 21/26/1 23/29/1 68/31/1
f 33/32/1 34/33/1 22/27/1 21/26/1
f 32/34/1 33/32/1 21/26/1 69/30/1
f 129/35/1 127/36/1 34/33/1 33/32/1
f 73/37/1 3/13/1 72/17/1
f 35/38/1 39/39/1 126/40/1 128/41/1
f 76/42/1 13/43/1 35/38/1 31/44/1
f 23/29/1 24/28/1 25/45/1 26/46/1
f 68/31/1 23/29/1 26/46/1 6/47/1
f 41/48/1 66/49/1 67/2/1 40/1/1
f 59/50/1 15/51/1 66/49/1 41/48/1
f 22/27/1 63/52/1 62/53/1 24/28/1
f 34/33/1 61/54/1 63/52/1 22/27/1
f 75/55/1 119/56/1 64/57/1 74/58/1
f 12/59/2 14/60/2 292/61/2
f 63/62/1 41/48/1 40/1/1 62/63/1
f 77/64/1 11/65/1 13/43/1 76/42/1
f 9/22/1 20/21/1 80/25/1
f 14/60/1 74/58/1 58/66/1 39/39/1
f 65/67/1 72/17/1 57/18/1
f 28/68/1 121/69/1 120/70/1 50/71/1 109/72/1 110/73/1 53/74/1
f 1/20/1 51/75/1 54/76/1 20/21/1
f 118/77/1 112/78/1 52/79/1
f 104/24/1 114/80/1 51/75/1 1/20/1
f 124/81/1 84/82/1 50/71/1 120/70/1
f 38/83/1 88/84/1 99/85/1 86/86/1
f 96/87/1 98/88/1 45/89/1 46/90/1
f 24/28/1 62/53/1 42/91/1 25/45/1
f 30/92/1 43/93/1 11/65/1 77/64/1
f 281/94/1 78/95/1 79/10/1 279/9/1
f 275/96/1 17/97/1 78/95/1 281/94/1
f 12/59/1 75/55/1 74/58/1 14/60/1
f 60/98/1 55/99/1 75/55/1 12/59/1
f 10/100/1 73/101/1 72/17/1 65/67/1
f 80/25/1 71/102/1 70/103/1 4/14/1
f 20/21/1 54/76/1 71/102/1 80/25/1
f 47/104/1 93/105/1 91/106/1 27/107/1 38/83/1 86/86/1 85/108/1
f 99/85/1 101/109/1 102/110/1 100/111/1
f 88/84/1 87/112/1 101/109/1 99/85/1
f 93/105/1 47/104/1 83/113/1 122/114/1
f 122/114/1 83/113/1 84/82/1 124/81/1
f 4/14/1 70/103/1 8/15/1
f 85/108/1 100/111/1 90/115/1 47/104/1
f 100/111/1 102/110/1 89/116/1 90/115/1
f 95/117/1 101/109/1 87/112/1
f 102/110/1 96/87/1 89/116/1
f 110/73/1 116/118/1 94/119/1 53/74/1
f 116/118/1 118/77/1 52/79/1 94/119/1
f 86/86/1 99/85/1 100/111/1 85/108/1
f 37/120/1 36/121/1 97/122/1 95/117/1
f 95/117/1 97/122/1 98/88/1 96/87/1
f 101/109/1 95/117/1 96/87/1 102/110/1
f 92/123/1 49/124/1 117/125/1 115/126/1
f 115/126/1 117/125/1 118/77/1 116/118/1
f 50/71/1 92/123/1 115/126/1 109/72/1
f 109/72/1 115/126/1 116/118/1 110/73/1
f 5/127/1 48/128/1 113/129/1 103/130/1
f 128/41/1 126/40/1 127/36/1 129/35/1
f 49/131/1 111/132/1 117/125/1
f 117/125/1 111/132/1 112/78/1 118/77/1
f 111/132/1 105/133/1 106/23/1 112/78/1
f 5/127/1 103/130/1 105/133/1
f 105/133/1 103/130/1 104/24/1 106/23/1
f 259/134/1 19/135/1 108/136/1 263/137/1
f 263/137/1 108/136/1 107/6/1 265/5/1
f 119/56/1 10/100/1 65/67/1 64/57/1
f 74/58/1 64/138/1 58/66/1
f 81/139/1 123/140/1 125/141/1 82/142/1
f 39/39/1 58/66/1 126/40/1
f 27/107/1 91/106/1 123/140/1 81/139/1
f 91/106/1 93/105/1 122/114/1 123/140/1
f 82/142/1 125/141/1 121/69/1 28/68/1
f 125/141/1 124/81/1 120/70/1 121/69/1
f 31/44/1 35/38/1 128/41/1
f 169/1/3 173/4/3 131/3/3 196/2/3
f 273/5/3 269/8/3 147/7/3 236/6/3
f 287/9/3 285/12/3 145/11/3 208/10/3
f 132/13/3 136/16/3 137/15/3 133/14/3
f 201/17/3 186/18/3 136/16/3 132/13/3
f 158/19/3 138/22/3 149/21/3 130/20/3
f 235/23/3 158/19/3 130/20/3 233/24/3
f 133/14/3 209/25/3 132/13/3
f 150/26/3 152/29/3 153/28/3 151/27/3
f 198/30/3 197/31/3 152/29/3 150/26/3
f 162/32/3 150/26/3 151/27/3 163/33/3
f 161/34/3 198/30/3 150/26/3 162/32/3
f 258/35/3 162/32/3 163/33/3 256/36/3
f 202/37/3 201/17/3 132/13/3
f 164/38/3 257/41/3 255/40/3 168/39/3
f 205/42/3 160/44/3 164/38/3 142/43/3
f 152/29/3 155/46/3 154/45/3 153/28/3
f 197/31/3 135/47/3 155/46/3 152/29/3
f 170/48/3 169/1/3 196/2/3 195/49/3
f 188/50/3 170/48/3 195/49/3 144/51/3
f 151/27/3 153/28/3 191/53/3 192/52/3
f 163/33/3 151/27/3 192/52/3 190/54/3
f 204/55/3 203/58/3 193/57/3 248/56/3
f 192/62/3 191/63/3 169/1/3 170/48/3
f 206/64/3 205/42/3 142/43/3 140/65/3
f 138/22/3 209/25/3 149/21/3
f 143/60/3 168/39/3 187/66/3 203/58/3
f 194/67/3 186/18/3 201/17/3
f 157/68/3 182/74/3 239/73/3 238/72/3 179/71/3 249/70/3 250/69/3
f 130/20/3 149/21/3 183/76/3 180/75/3
f 247/77/3 181/79/3 241/78/3
f 233/24/3 130/20/3 180/75/3 243/80/3
f 253/81/3 249/70/3 179/71/3 213/82/3
f 167/83/3 215/86/3 228/85/3 217/84/3
f 225/87/3 175/90/3 174/89/3 227/88/3
f 153/28/3 154/45/3 171/91/3 191/53/3
f 159/92/3 206/64/3 140/65/3 172/93/3
f 289/94/3 287/9/3 208/10/3 207/95/3
f 283/96/3 289/94/3 207/95/3 146/97/3
f 141/59/3 143/60/3 203/58/3 204/55/3
f 189/98/3 141/59/3 204/55/3 184/99/3
f 139/100/3 194/67/3 201/17/3 202/101/3
f 209/25/3 133/14/3 199/103/3 200/102/3
f 149/21/3 209/25/3 200/102/3 183/76/3
f 176/104/3 214/108/3 215/86/3 167/83/3 156/107/3 220/106/3 222/105/3
f 228/85/3 229/111/3 231/110/3 230/109/3
f 217/84/3 228/85/3 230/109/3 216/112/3
f 222/105/3 251/114/3 212/113/3 176/104/3
f 251/114/3 253/81/3 213/82/3 212/113/3
f 133/14/3 137/15/3 199/103/3
f 214/108/3 176/104/3 219/115/3 229/111/3
f 229/111/3 219/115/3 218/116/3 231/110/3
f 224/117/3 216/112/3 230/109/3
f 231/110/3 218/116/3 225/87/3
f 239/73/3 182/74/3 223/119/3 245/118/3
f 245/118/3 223/119/3 181/79/3 247/77/3
f 215/86/3 214/108/3 229/111/3 228/85/3
f 166/120/3 224/117/3 226/122/3 165/121/3
f 224/117/3 225/87/3 227/88/3 226/122/3
f 230/109/3 231/110/3 225/87/3 224/117/3
f 221/123/3 244/126/3 246/125/3 178/124/3
f 244/126/3 245/118/3 247/77/3 246/125/3
f 179/71/3 238/72/3 244/126/3 221/123/3
f 238/72/3 239/73/3 245/118/3 244/126/3
f 134/127/3 232/130/3 242/129/3 177/128/3
f 257/41/3 258/35/3 256/36/3 255/40/3
f 178/131/3 246/125/3 240/132/3
f 246/125/3 247/77/3 241/78/3 240/132/3
f 240/132/3 241/78/3 235/23/3 234/133/3
f 134/127/3 234/133/3 232/130/3
f 234/133/3 235/23/3 233/24/3 232/130/3
f 267/134/3 271/137/3 237/136/3 148/135/3
f 271/137/3 273/5/3 236/6/3 237/136/3
f 248/56/3 193/57/3 194/67/3 139/100/3
f 203/58/3 187/66/3 193/138/3
f 210/139/3 211/142/3 254/141/3 252/140/3
f 168/39/3 255/40/3 187/66/3
f 156/107/3 210/139/3 252/140/3 220/106/3
f 220/106/3 252/140/3 251/114/3 222/105/3
f 211/142/3 157/68/3 250/69/3 254/141/3
f 254/141/3 250/69/3 249/70/3 253/81/3
f 160/44/3 257/41/3 164/38/3
f 111/132/4 240/132/4 234/133/4 105/133/4
f 127/36/5 256/36/5 163/33/5 34/33/5
f 65/67/6 194/67/6 193/57/6 64/57/6
f 106/23/6 235/23/6 241/78/6 112/78/6
f 33/32/2 162/32/2 258/35/2 129/35/2
f 62/53/5 191/53/5 171/91/5 42/91/5
f 66/49/5 195/49/5 196/2/5 67/2/5
f 39/39/2 168/39/2 143/60/2 14/60/2
f 67/2/5 196/2/5 131/3/5 2/3/5
f 13/43/5 142/43/5 164/38/5 35/38/5
f 68/31/2 197/31/2 198/30/2 69/30/2
f 80/25/7 209/25/7 138/22/7 9/22/7
f 69/30/2 198/30/2 161/34/2 32/34/2
f 73/37/8 202/37/8 132/13/8 3/13/8
f 5/127/4 134/127/4 177/128/4 48/128/4
f 3/13/9 132/13/9 209/25/9 80/25/9
f 92/123/4 221/123/4 178/124/4 49/124/4
f 70/103/10 199/103/10 137/15/10 8/15/10
f 52/79/6 181/79/6 223/119/6 94/119/6
f 37/120/4 166/120/4 165/121/4 36/121/4
f 38/83/4 167/83/4 217/84/4 88/84/4
f 87/112/8 216/112/8 224/117/8 95/117/8
f 75/55/4 204/55/4 248/56/4 119/56/4
f 96/87/10 225/87/10 218/116/10 89/116/10
f 42/91/6 171/91/6 154/45/6 25/45/6
f 61/54/5 190/54/5 192/52/5 63/52/5
f 125/141/4 254/141/4 253/81/4 124/81/4
f 97/122/5 226/122/5 227/88/5 98/88/5
f 123/140/5 252/140/5 254/141/5 125/141/5
f 34/33/4 163/33/4 190/54/4 61/54/4
f 124/81/2 253/81/2 251/114/2 122/114/2
f 45/89/6 174/89/6 175/90/6 46/90/6
f 56/143/2 185/143/2 199/103/2 70/103/2
f 90/115/6 219/115/6 176/104/6 47/104/6
f 51/75/5 180/75/5 183/76/5 54/76/5
f 259/134/4 267/134/4 148/135/4 19/135/4
f 50/71/4 179/71/4 221/123/4 92/123/4
f 112/78/10 241/78/10 181/79/10 52/79/10
f 262/144/6 270/144/6 180/75/6 51/75/6
f 94/119/6 223/119/6 182/74/6 53/74/6
f 6/47/2 135/47/2 197/31/2 68/31/2
f 84/82/5 213/82/5 179/71/5 50/71/5
f 126/40/5 255/40/5 256/36/5 127/36/5
f 275/96/4 283/96/4 146/97/4 17/97/4
f 9/22/2 138/22/2 158/19/2 29/19/2
f 36/121/5 165/121/5 226/122/5 97/122/5
f 129/35/2 258/35/2 257/41/2 128/41/2
f 278/145/6 286/145/6 185/143/6 56/143/6
f 2/3/6 131/3/6 173/4/6 44/4/6
f 7/16/6 136/16/6 186/18/6 57/18/6
f 29/19/2 158/19/2 235/23/2 106/23/2
f 46/90/2 175/90/2 225/87/2 96/87/2
f 64/138/10 193/138/10 187/66/10 58/66/10
f 98/88/5 227/88/5 174/89/5 45/89/5
f 58/66/10 187/66/10 255/40/10 126/40/10
f 59/50/4 188/50/4 144/51/4 15/51/4
f 15/51/5 144/51/5 195/49/5 66/49/5
f 57/18/7 186/18/7 194/67/7 65/67/7
f 128/41/7 257/41/7 160/44/7 31/44/7
f 35/38/4 164/38/4 168/39/4 39/39/4
f 103/130/5 232/130/5 233/24/5 104/24/5
f 60/98/4 189/98/4 184/99/4 55/99/4
f 105/133/9 234/133/9 134/127/9 5/127/9
f 17/97/5 146/97/5 207/95/5 78/95/5
f 44/4/2 173/4/2 169/1/2 40/1/2
f 19/135/5 148/135/5 237/136/5 108/136/5
f 291/43/1 142/43/1 13/43/1
f 107/6/5 236/6/5 147/7/5 18/7/5
f 108/136/5 237/136/5 236/6/5 107/6/5
f 55/99/5 184/99/5 204/55/5 75/55/5
f 28/68/2 157/68/2 211/142/2 82/142/2
f 76/42/2 205/42/2 206/64/2 77/64/2
f 49/131/8 178/131/8 240/132/8 111/132/8
f 31/44/2 160/44/2 205/42/2 76/42/2
f 77/64/2 206/64/2 159/92/2 30/92/2
f 119/56/4 248/56/4 139/100/4 10/100/4
f 78/95/5 207/95/5 208/10/5 79/10/5
f 25/45/6 154/45/6 155/46/6 26/46/6
f 79/10/5 208/10/5 145/11/5 16/11/5
f 26/46/6 155/46/6 135/47/6 6/47/6
f 114/80/2 243/80/2 242/129/2 113/129/2
f 27/107/9 156/107/9 167/83/9 38/83/9
f 30/92/4 159/92/4 172/93/4 43/93/4
f 81/139/2 210/139/2 156/107/2 27/107/2
f 82/142/2 211/142/2 210/139/2 81/139/2
f 32/34/4 161/34/4 162/32/4 33/32/4
f 47/104/5 176/104/5 212/113/5 83/113/5
f 8/15/6 137/15/6 136/16/6 7/16/6
f 83/113/5 212/113/5 213/82/5 84/82/5
f 10/100/4 139/100/4 202/101/4 73/101/4
f 53/74/7 182/74/7 157/68/7 28/68/7
f 122/114/6 251/114/6 252/140/6 123/140/6
f 95/117/2 224/117/2 166/120/2 37/120/2
f 40/1/11 169/1/11 191/63/11 62/63/11
f 63/62/12 192/62/12 170/48/12 41/48/12
f 113/129/6 242/129/6 232/130/6 103/130/6
f 88/84/4 217/84/4 216/112/4 87/112/4
f 41/48/2 170/48/2 188/50/2 59/50/2
f 104/24/4 233/24/4 243/80/4 114/80/4
f 89/116/6 218/116/6 219/115/6 90/115/6
f 18/7/6 147/7/6 269/8/6 261/8/6
f 261/8/6 269/8/6 270/144/6 262/144/6
f 48/128/4 177/128/4 268/146/4 260/146/4
f 260/146/4 268/146/4 267/134/4 259/134/4
f 242/129/3 243/80/3 274/147/3 272/148/3
f 272/148/3 274/147/3 273/5/3 271/137/3
f 177/128/3 242/129/3 272/148/3 268/146/3
f 268/146/3 272/148/3 271/137/3 267/134/3
f 243/80/3 180/75/3 270/144/3 274/147/3
f 274/147/3 270/144/3 269/8/3 273/5/3
f 113/129/1 264/148/1 266/147/1 114/80/1
f 264/148/1 263/137/1 265/5/1 266/147/1
f 48/128/1 260/146/1 264/148/1 113/129/1
f 260/146/1 259/134/1 263/137/1 264/148/1
f 114/80/1 266/147/1 262/144/1 51/75/1
f 266/147/1 265/5/1 261/8/1 262/144/1
f 16/11/6 145/11/6 285/12/6 277/12/6
f 277/12/6 285/12/6 286/145/6 278/145/6
f 54/76/4 183/76/4 284/149/4 276/149/4
f 276/149/4 284/149/4 283/96/4 275/96/4
f 183/76/3 200/102/3 290/150/3 284/149/3
f 284/149/3 290/150/3 289/94/3 283/96/3
f 200/102/3 199/103/3 288/151/3 290/150/3
f 290/150/3 288/151/3 287/9/3 289/94/3
f 199/103/3 185/143/3 286/145/3 288/151/3
f 288/151/3 286/145/3 285/12/3 287/9/3
f 54/76/1 276/149/1 282/150/1 71/102/1
f 276/149/1 275/96/1 281/94/1 282/150/1
f 71/102/1 282/150/1 280/151/1 70/103/1
f 282/150/1 281/94/1 279/9/1 280/151/1
f 70/103/1 280/151/1 278/145/1 56/143/1
f 280/151/1 279/9/1 277/12/1 278/145/1
f 292/61/6 143/60/6 142/43/6 291/43/6
f 11/65/5 291/43/5 13/43/5
f 14/60/1 143/60/1 292/61/1
f 43/93/4 172/93/4 189/98/4 60/98/4
f 172/93/3 140/65/3 141/59/3 189/98/3
f 140/65/3 142/43/3 143/60/3 141/59/3
f 43/93/1 60/98/1 12/59/1 11/65/1
f 11/65/13 12/59/13 292/61/13 291/43/13
